<svg width="14" height="20" viewBox="0 0 14 20" fill="none" xmlns="http://www.w3.org/2000/svg">
<path d="M7 0C3.14012 0 0 3.31421 0 7.38809C0 8.72925 0.569882 10.1717 0.593765 10.2325C0.777824 10.6936 1.141 11.4098 1.40288 11.8296L6.20241 19.505C6.39882 19.8196 6.68953 20 7 20C7.31047 20 7.60118 19.8196 7.79759 19.5054L12.5975 11.8296C12.8598 11.4098 13.2226 10.6936 13.4066 10.2325C13.4305 10.1721 14 8.72968 14 7.38809C14 3.31421 10.8599 0 7 0ZM12.6474 9.89526C12.4831 10.3086 12.145 10.9748 11.9099 11.3512L7.10994 19.0269C7.01524 19.1786 6.98518 19.1786 6.89047 19.0269L2.09053 11.3512C1.85541 10.9748 1.51735 10.3081 1.35306 9.89483C1.34606 9.87701 0.823529 8.54933 0.823529 7.38809C0.823529 3.79357 3.59429 0.869187 7 0.869187C10.4057 0.869187 13.1765 3.79357 13.1765 7.38809C13.1765 8.55106 12.6527 9.88223 12.6474 9.89526Z" fill="#ADADAD"/>
<path d="M13.2647 5.50005C15.1596 8.50005 9.159 16.5 7.10614 19.5L2.84247 13C-2.46337 5.8 2.52668 1.6667 5.68494 0.500047C10.2328 -0.699943 12.6331 3.33338 13.2647 5.50005Z" fill="#ADADAD"/>
<ellipse cx="7.10606" cy="7.5" rx="3.31615" ry="3.5" fill="white"/>
<path d="M7.00008 3.47705C4.95649 3.47705 3.29419 5.23194 3.29419 7.38839C3.29419 9.54485 4.95649 11.2997 7.00008 11.2997C9.04367 11.2997 10.706 9.54485 10.706 7.38839C10.706 5.23194 9.04367 3.47705 7.00008 3.47705ZM7.00008 10.4305C5.41107 10.4305 4.11772 9.06592 4.11772 7.38839C4.11772 5.71086 5.41107 4.34624 7.00008 4.34624C8.58908 4.34624 9.88243 5.71086 9.88243 7.38839C9.88243 9.06592 8.58908 10.4305 7.00008 10.4305Z" fill="#ADADAD"/>
</svg>
